<?xml version="1.0" encoding="UTF-8"?><svg id="Layer_1" xmlns="http://www.w3.org/2000/svg" viewBox="0 0 4000 4000"><defs><style>.cls-1{stroke-width:50px;}.cls-1,.cls-2,.cls-3{fill:#fff;}.cls-1,.cls-2,.cls-4{stroke:#fff;stroke-miterlimit:10;}.cls-2{stroke-width:47.39px;}.cls-5{fill:#333;}.cls-6{fill:#bcd39c;}.cls-7{font-family:MyriadPro-Regular, 'Myriad Pro';font-size:300px;}.cls-8{letter-spacing:.09em;}.cls-8,.cls-9{fill:#fffcad;}.cls-4{fill:none;stroke-width:31px;}.cls-10,.cls-9{letter-spacing:.08em;}.cls-11{letter-spacing:.08em;}.cls-12{letter-spacing:.06em;}.cls-13{fill:#c7faf6;letter-spacing:.08em;}</style></defs><path class="cls-4" d="m1602.08,2330.71c-70.65,0-141.38-8.19-210.21-24.35-69.13-16.23-136.3-40.48-199.64-72.09-64.46-32.16-125.02-71.98-180-118.34-56.62-47.75-107.59-102.68-151.47-163.26-72.43-99.99-123.11-211.14-150.62-330.39-26.58-115.2-30.56-233.08-11.81-350.37,18.74-117.29,59.26-228.07,120.42-329.24,63.31-104.73,146.1-194.56,246.09-266.99,79.35-57.48,166.46-101.56,258.91-131.02,89.42-28.49,182.53-42.94,276.75-42.94,70.65,0,141.38,8.19,210.21,24.35,69.13,16.23,136.3,40.48,199.64,72.09,64.46,32.16,125.02,71.98,180,118.34,56.62,47.75,107.59,102.68,151.47,163.26,72.43,99.99,123.11,211.14,150.62,330.39,26.58,115.2,30.55,233.08,11.81,350.37-18.75,117.29-59.26,228.07-120.42,329.24-63.31,104.73-146.1,194.55-246.09,266.99-79.35,57.48-166.46,101.56-258.91,131.02-89.42,28.49-182.53,42.94-276.75,42.94Z"/><path class="cls-4" d="m1600.56,542.46c67.51,0,135.1,7.83,200.88,23.28,66.05,15.51,130.23,38.69,190.75,68.89,61.57,30.72,119.41,68.75,171.92,113.03,54.09,45.62,102.79,98.1,144.73,156,34.81,48.05,64.74,99.55,88.97,153.08,23.6,52.13,42.08,106.82,54.95,162.57,12.63,54.75,19.98,111.08,21.82,167.41,1.83,55.82-1.72,112.14-10.55,167.38-8.83,55.24-23.01,109.86-42.14,162.33-19.31,52.95-43.84,104.18-72.91,152.27-29.6,48.96-64.21,95.17-102.88,137.35-39.71,43.31-84.2,82.92-132.25,117.73-75.83,54.93-159.06,97.06-247.38,125.2-85.41,27.22-174.37,41.02-264.39,41.02-67.52,0-135.12-7.83-200.9-23.28-66.06-15.51-130.24-38.68-190.76-68.88-61.57-30.72-119.41-68.75-171.93-113.03-54.1-45.62-102.8-98.11-144.75-156.02-34.81-48.05-64.74-99.55-88.97-153.08-23.6-52.13-42.08-106.82-54.95-162.57-12.63-54.75-19.98-111.08-21.82-167.41-1.83-55.82,1.72-112.14,10.55-167.38s23.01-109.86,42.14-162.33c19.31-52.95,43.84-104.18,72.91-152.27,29.6-48.96,64.21-95.17,102.88-137.35,39.71-43.31,84.2-82.92,132.25-117.73,75.83-54.93,159.06-97.05,247.38-125.19,85.41-27.21,174.37-41.02,264.42-41.02h.03m-.06-81.45c-194.21.01-390.26,59.06-559.56,181.71-427.2,309.47-522.64,906.66-213.17,1333.86,186.83,257.9,478.46,394.87,774.3,394.87,194.21,0,390.26-59.06,559.56-181.71,427.2-309.47,522.64-906.66,213.16-1333.86-186.83-257.9-478.46-394.89-774.3-394.87h0Z"/><path class="cls-3" d="m1017.96,1838.87c-246.55-340.34-183.93-810.47,134.32-1075.47-15.24,9.54-30.26,19.65-45.04,30.35-355.12,257.26-434.45,753.68-177.2,1108.8,257.26,355.12,753.68,434.45,1108.8,177.2,14.78-10.7,29.06-21.83,42.88-33.33-350.98,219.81-817.21,132.79-1063.76-207.55Z"/><path class="cls-1" d="m2269.51,2047.84c5.78,6.2,11.24,12.82,16.34,19.86,67.07,92.58,46.38,222.01-46.2,289.07s-222.01,46.38-289.07-46.2c-5.1-7.04-9.69-14.29-13.78-21.72"/><path class="cls-2" d="m3220.46,3654.28l-40.36,29.24c-74.73,54.14-174.98,40.82-219.5-29.16l-725.82-1140.87c-11.45-17.99-6.9-41.79,10.37-54.3l121.82-88.25c17.48-12.67,41.84-9.31,55.25,7.6l840.32,1059.78c50.99,64.3,31.88,162.38-42.08,215.96Z"/><path class="cls-5" d="m2680.5,2775.07l558.8,691.46s53.34,60.3-47.26,179.81c0,0,23.84-58.28-26.36-161.11-50.2-102.82-485.18-710.16-485.18-710.16Z"/><path class="cls-3" d="m1986.11,1517.24c-20.46,0-37.06,16.59-37.06,37.06s16.59,37.06,37.06,37.06,37.06-16.59,37.06-37.06-16.59-37.06-37.06-37.06Z"/><path class="cls-3" d="m1985.3,1455.81c-52.97,0-96.07,43.1-96.07,96.07,0,44.38,30.26,81.81,71.23,92.79-12.09,74.77-47.45,137.95-107.75,192.7-10.69,9.71-21.87,17.47-33.21,23.07-27.15,13.41-55.3,16.79-86.07,10.33-33.3-6.99-64.47-25.51-87.77-52.14-55.67-63.64-86.07-140.33-90.35-227.93,18.7-6.95,32.03-24.95,32.03-46.08v-6.11c48.92-11.17,91.2-37.96,123.84-78.88,30.31-38.01,41.56-74.56,42.75-78.6h0c3.66-12.44-.12-25.6-9.08-34.26,64.65-149.67,57.45-292.65,55.34-319.92-.2-2.52-.33-5.05-.48-7.57-.07-1.33-.15-2.66-.23-4-1.82-29.77-16.95-52.73-42.61-64.64-11.11-5.15-23.29-7.77-36.21-7.77h-18.26c-1.05-3.33-3.37-6.17-6.58-7.79-5.88-2.95-12.92-5.21-19.75-6.91-13.04-3.24-26.47-4.69-39.91-4.69h-12.07c-.21,0-.42,0-.62,0-12.19.17-21.93,10.19-21.93,22.38v19.68c0,12.19,9.75,22.21,21.93,22.38.21,0,.41,0,.62,0h12.05c13.28,0,26.54-1.41,39.44-4.57,6.63-1.62,13.48-3.77,19.31-6.57,3.5-1.68,6.08-4.69,7.32-8.24h18.44c9.16,0,17.71,1.81,25.4,5.38,17.19,7.98,26.53,22.41,27.78,42.9.08,1.28.15,2.57.22,3.85.15,2.72.3,5.44.51,8.15,2.03,26.24,8.97,164.02-53.56,308.34-13.56.03-26.39,8.14-31.73,21.51-38.03,95.08-108.44,113.05-137.49,116.36-2.94.3-5.93.53-8.99.68-.89.03-1.63.04-2.24.05-.58,0-1.29-.02-2.11-.04-2.94-.15-5.82-.37-8.65-.65-28.82-3.2-99.66-20.93-137.85-116.4-5.36-13.4-18.24-21.52-31.85-21.51-63.18-154.39-52.26-306.78-52.14-308.34.21-2.72.36-5.43.51-8.15.07-1.28.14-2.57.22-3.85,1.25-20.5,10.6-34.93,27.78-42.9,7.7-3.57,16.24-5.38,25.4-5.38h18.44c1.24,3.55,3.81,6.56,7.32,8.24,5.82,2.8,12.68,4.95,19.31,6.57,12.9,3.16,26.16,4.57,39.43,4.57h12.06c.21,0,.42,0,.62,0,12.19-.17,21.94-10.19,21.94-22.38v-19.68c0-12.19-9.75-22.21-21.94-22.38-.2,0-.41,0-.62,0h-12.07c-13.44,0-26.86,1.45-39.91,4.69-6.84,1.7-13.87,3.95-19.75,6.91-3.21,1.61-5.52,4.46-6.58,7.79h-18.26c-12.92,0-25.1,2.61-36.21,7.77-25.66,11.91-40.79,34.86-42.61,64.64-.08,1.33-.15,2.66-.23,3.99-.14,2.53-.28,5.05-.47,7.58-.4,5.16-3.68,52.49,4.49,122.62,8.28,71.09,24.91,137.4,49.46,197.37-8.91,8.66-12.66,21.77-9.01,34.18h0c1.18,4.05,12.44,40.6,42.75,78.6,31.58,39.59,72.18,65.96,119.01,77.74v7.24c0,21.13,13.33,39.14,32.05,46.08-.02.49-.03.98,0,1.47,4.64,95.58,37.88,179.36,98.79,249,28.15,32.19,65.98,54.6,106.51,63.11,12.25,2.57,24.34,3.86,36.23,3.86,25,0,49.12-5.68,72.03-16.99,14.2-7.01,28.01-16.57,41.07-28.42,66.06-59.98,106.01-132.33,118.94-215.24,48.6-4.72,86.71-45.79,86.71-95.61,0-52.97-43.1-96.07-96.07-96.07Zm0,157.9c-34.09,0-61.83-27.74-61.83-61.83s27.73-61.83,61.83-61.83,61.83,27.74,61.83,61.83-27.74,61.83-61.83,61.83Z"/><text class="cls-7" transform="translate(1566.66 2826.8)"><tspan class="cls-6"><tspan class="cls-12" x="0" y="0">F</tspan><tspan class="cls-10" x="162.9" y="0">ind</tspan></tspan><tspan class="cls-11" x="0" y="360" xml:space="preserve">      </tspan><tspan class="cls-13" x="529.18" y="360">A</tspan><tspan class="cls-11" x="0" y="720" xml:space="preserve">       </tspan><tspan class="cls-8" x="617.38" y="720">D</tspan><tspan class="cls-9" x="842.97" y="720">oc</tspan></text><text/></svg>